{"title":"SIRINA 1o &amp;Alpha;&amp;rho;&amp;chi;&amp;alpha;&amp;iota;&amp;omicron;&amp;epsilon;&amp;lambd","uid":7401192,"size":1105791216,"categoryP":"porn","categoryS":"movies","magnet":"?xt=urn:btih:664c7d7ec8e1efb29b48e0b80e7c3146aa40e48a&amp;dn=SIRINA+1o+%26Alpha%3B%26rho%3B%26chi%3B%26alpha%3B%26iota%3B%26omicron%3B%26epsilon%3B%26lambd&amp;tr=udp%3A%2F%2Ftracker.openbittorrent.com%3A80&amp;tr=udp%3A%2F%2Fopen.demonii.com%3A1337&amp;tr=udp%3A%2F%2Ftracker.coppersurfer.tk%3A6969&amp;tr=udp%3A%2F%2Fexodus.desync.com%3A6969","seeders":2,"leechers":0,"uploader":"AnorthosisFamagusta","files":1,"time":1341079034,"description":"General\nComplete name                  : F:jdownloaderdownloadarcarc.avi\nFormat                         : AVI\nFormat/Info                    : Audio Video Interleave\nFormat profile                 : OpenDML\nFile size                      : 1.03 GiB\nDuration                       : 1h 16mn\nOverall bit rate               : 1 921 Kbps\nWriting application            : Lavf51.12.1\n\nVideo\nID                             : 0\nFormat                         : MPEG-4 Visual\nFormat profile                 : Simple@L1\nFormat settings, BVOP          : No\nFormat settings, QPel          : No\nFormat settings, GMC           : No warppoints\nFormat settings, Matrix        : Default (H.263)\nCodec ID                       : DX50\nCodec ID/Hint                  : DivX 5\nDuration                       : 1h 16mn\nBit rate                       : 1 777 Kbps\nWidth                          : 640 pixels\nHeight                         : 480 pixels\nDisplay aspect ratio           : 4:3\nFrame rate                     : 23.976 fps\nColor space                    : YUV\nChroma subsampling             : 4:2:0\nBit depth                      : 8 bits\nScan type                      : Progressive\nCompression mode               : Lossy\nBits/(Pixel*Frame)             : 0.241\nStream size                    : 976 MiB (93%)\nWriting library                : Lavc51.40.4\n\nAudio\nID                             : 1\nFormat                         : MPEG Audio\nFormat version                 : Version 1\nFormat profile                 : Layer 3\nMode                           : Joint stereo\nMode extension                 : MS Stereo\nCodec ID                       : 55\nCodec ID/Hint                  : MP3\nDuration                       : 1h 16mn\nBit rate mode                  : Constant\nBit rate                       : 128 Kbps\nChannel(s)                     : 2 channels\nSampling rate                  : 44.1 KHz\nCompression mode               : Lossy\nStream size                    : 70.3 MiB (7%)\nAlignment                      : Aligned on interleaves\nInterleave, duration           : 26 ms (0.63 video frame)\n\n","torrent":{"xt":"urn:btih:664c7d7ec8e1efb29b48e0b80e7c3146aa40e48a","amp;dn":"SIRINA+1o+%26Alpha%3B%26rho%3B%26chi%3B%26alpha%3B%26iota%3B%26omicron%3B%26epsilon%3B%26lambd","amp;tr":["udp%3A%2F%2Ftracker.openbittorrent.com%3A80","udp%3A%2F%2Fopen.demonii.com%3A1337","udp%3A%2F%2Ftracker.coppersurfer.tk%3A6969","udp%3A%2F%2Fexodus.desync.com%3A6969"],"infoHash":"664c7d7ec8e1efb29b48e0b80e7c3146aa40e48a","infoHashBuffer":{"type":"Buffer","data":[102,76,125,126,200,225,239,178,155,72,224,184,14,124,49,70,170,64,228,138]},"announce":[],"urlList":[]}}